<mxfile host="app.diagrams.net" modified="2022-07-07T12:22:00.266Z" agent="5.0 (Windows NT 10.0; Win64; x64) AppleWebKit/537.36 (KHTML, like Gecko) Chrome/103.0.0.0 Safari/537.36" etag="l6d2mBMI8JViuhfuvtIr" version="20.0.4" type="github">
  <diagram id="Y_4e-g6y54JG4lKSlURq" name="Page-1">
    <mxGraphModel dx="2142" dy="730" grid="1" gridSize="10" guides="1" tooltips="1" connect="1" arrows="1" fold="1" page="1" pageScale="1" pageWidth="850" pageHeight="1100" math="0" shadow="0">
      <root>
        <mxCell id="0" />
        <mxCell id="1" parent="0" />
        <mxCell id="4hGdP1M2JwbJeWWglB2I-54" value="" style="rounded=0;whiteSpace=wrap;html=1;strokeColor=#129416;" parent="1" vertex="1">
          <mxGeometry x="-700" y="80" width="2360" height="600" as="geometry" />
        </mxCell>
        <mxCell id="4hGdP1M2JwbJeWWglB2I-15" value="" style="rounded=0;whiteSpace=wrap;html=1;strokeColor=#0F17FF;" parent="1" vertex="1">
          <mxGeometry x="-160" y="160" width="1640" height="410" as="geometry" />
        </mxCell>
        <mxCell id="4hGdP1M2JwbJeWWglB2I-59" style="edgeStyle=orthogonalEdgeStyle;rounded=0;orthogonalLoop=1;jettySize=auto;html=1;exitX=0.5;exitY=0;exitDx=0;exitDy=0;entryX=0;entryY=0.5;entryDx=0;entryDy=0;strokeColor=#E62712;" parent="1" source="4hGdP1M2JwbJeWWglB2I-42" target="4hGdP1M2JwbJeWWglB2I-60" edge="1">
          <mxGeometry relative="1" as="geometry">
            <Array as="points">
              <mxPoint x="-270" y="120" />
            </Array>
          </mxGeometry>
        </mxCell>
        <mxCell id="9MLLla6oI4jPxRE4S_ba-36" value="old Process (hidden in Trainer)" style="edgeLabel;html=1;align=center;verticalAlign=middle;resizable=0;points=[];" vertex="1" connectable="0" parent="4hGdP1M2JwbJeWWglB2I-59">
          <mxGeometry x="-0.0858" y="2" relative="1" as="geometry">
            <mxPoint as="offset" />
          </mxGeometry>
        </mxCell>
        <mxCell id="9MLLla6oI4jPxRE4S_ba-62" style="edgeStyle=orthogonalEdgeStyle;rounded=0;orthogonalLoop=1;jettySize=auto;html=1;entryX=0.5;entryY=0;entryDx=0;entryDy=0;" edge="1" parent="1" source="4hGdP1M2JwbJeWWglB2I-1" target="9MLLla6oI4jPxRE4S_ba-53">
          <mxGeometry relative="1" as="geometry" />
        </mxCell>
        <mxCell id="4hGdP1M2JwbJeWWglB2I-1" value="Document" style="rounded=0;whiteSpace=wrap;html=1;fillColor=none;strokeColor=#0F17FF;" parent="1" vertex="1">
          <mxGeometry x="-140" y="290" width="120" height="60" as="geometry" />
        </mxCell>
        <mxCell id="9MLLla6oI4jPxRE4S_ba-65" style="edgeStyle=orthogonalEdgeStyle;rounded=0;orthogonalLoop=1;jettySize=auto;html=1;entryX=0.5;entryY=0;entryDx=0;entryDy=0;" edge="1" parent="1" source="4hGdP1M2JwbJeWWglB2I-4" target="9MLLla6oI4jPxRE4S_ba-66">
          <mxGeometry relative="1" as="geometry" />
        </mxCell>
        <mxCell id="4hGdP1M2JwbJeWWglB2I-4" value="&lt;b&gt;Document&lt;/b&gt; no Label with one Span per Annotation" style="rounded=0;whiteSpace=wrap;html=1;strokeColor=#0F17FF;" parent="1" vertex="1">
          <mxGeometry x="260" y="335" width="120" height="60" as="geometry" />
        </mxCell>
        <mxCell id="9MLLla6oI4jPxRE4S_ba-76" style="edgeStyle=orthogonalEdgeStyle;rounded=0;orthogonalLoop=1;jettySize=auto;html=1;entryX=0.467;entryY=0;entryDx=0;entryDy=0;entryPerimeter=0;" edge="1" parent="1" source="4hGdP1M2JwbJeWWglB2I-25" target="9MLLla6oI4jPxRE4S_ba-72">
          <mxGeometry relative="1" as="geometry">
            <Array as="points">
              <mxPoint x="1040" y="320" />
              <mxPoint x="1040" y="240" />
              <mxPoint x="1125" y="240" />
            </Array>
          </mxGeometry>
        </mxCell>
        <mxCell id="4hGdP1M2JwbJeWWglB2I-25" value="&lt;b&gt;Document&lt;/b&gt; with Annotation Sets" style="rounded=0;whiteSpace=wrap;html=1;strokeColor=#1222FF;" parent="1" vertex="1">
          <mxGeometry x="910" y="290" width="120" height="60" as="geometry" />
        </mxCell>
        <mxCell id="4hGdP1M2JwbJeWWglB2I-38" value="SDK Concepts" style="rounded=0;whiteSpace=wrap;html=1;fillColor=none;strokeColor=#0F17FF;" parent="1" vertex="1">
          <mxGeometry x="-140" y="170" width="120" height="60" as="geometry" />
        </mxCell>
        <mxCell id="9MLLla6oI4jPxRE4S_ba-105" value="" style="edgeStyle=orthogonalEdgeStyle;rounded=0;orthogonalLoop=1;jettySize=auto;html=1;" edge="1" parent="1" source="4hGdP1M2JwbJeWWglB2I-40" target="9MLLla6oI4jPxRE4S_ba-104">
          <mxGeometry relative="1" as="geometry" />
        </mxCell>
        <mxCell id="9MLLla6oI4jPxRE4S_ba-107" value="" style="edgeStyle=orthogonalEdgeStyle;rounded=0;orthogonalLoop=1;jettySize=auto;html=1;" edge="1" parent="1" source="4hGdP1M2JwbJeWWglB2I-40" target="9MLLla6oI4jPxRE4S_ba-106">
          <mxGeometry relative="1" as="geometry">
            <Array as="points">
              <mxPoint x="1650" y="425" />
              <mxPoint x="1650" y="340" />
            </Array>
          </mxGeometry>
        </mxCell>
        <mxCell id="9MLLla6oI4jPxRE4S_ba-109" value="GET" style="edgeLabel;html=1;align=center;verticalAlign=middle;resizable=0;points=[];" vertex="1" connectable="0" parent="9MLLla6oI4jPxRE4S_ba-107">
          <mxGeometry x="0.1535" y="3" relative="1" as="geometry">
            <mxPoint as="offset" />
          </mxGeometry>
        </mxCell>
        <mxCell id="9MLLla6oI4jPxRE4S_ba-112" value="POST" style="edgeStyle=orthogonalEdgeStyle;rounded=0;orthogonalLoop=1;jettySize=auto;html=1;" edge="1" parent="1" source="4hGdP1M2JwbJeWWglB2I-40" target="9MLLla6oI4jPxRE4S_ba-106">
          <mxGeometry relative="1" as="geometry">
            <Array as="points">
              <mxPoint x="1650" y="425" />
              <mxPoint x="1650" y="410" />
              <mxPoint x="1780" y="410" />
            </Array>
          </mxGeometry>
        </mxCell>
        <mxCell id="4hGdP1M2JwbJeWWglB2I-40" value="Document" style="rounded=0;whiteSpace=wrap;html=1;strokeColor=#129416;" parent="1" vertex="1">
          <mxGeometry x="1500" y="395" width="120" height="60" as="geometry" />
        </mxCell>
        <mxCell id="4hGdP1M2JwbJeWWglB2I-44" style="edgeStyle=orthogonalEdgeStyle;rounded=0;orthogonalLoop=1;jettySize=auto;html=1;" parent="1" source="4hGdP1M2JwbJeWWglB2I-42" target="4hGdP1M2JwbJeWWglB2I-1" edge="1">
          <mxGeometry relative="1" as="geometry">
            <Array as="points">
              <mxPoint x="-180" y="320" />
              <mxPoint x="-180" y="320" />
            </Array>
          </mxGeometry>
        </mxCell>
        <mxCell id="9MLLla6oI4jPxRE4S_ba-6" value="optional" style="edgeLabel;html=1;align=center;verticalAlign=middle;resizable=0;points=[];" vertex="1" connectable="0" parent="4hGdP1M2JwbJeWWglB2I-44">
          <mxGeometry x="-0.0631" relative="1" as="geometry">
            <mxPoint as="offset" />
          </mxGeometry>
        </mxCell>
        <mxCell id="9MLLla6oI4jPxRE4S_ba-1" value="" style="edgeStyle=orthogonalEdgeStyle;rounded=0;orthogonalLoop=1;jettySize=auto;html=1;" edge="1" parent="1" source="4hGdP1M2JwbJeWWglB2I-42" target="4hGdP1M2JwbJeWWglB2I-43">
          <mxGeometry relative="1" as="geometry" />
        </mxCell>
        <mxCell id="9MLLla6oI4jPxRE4S_ba-2" value="#9260" style="edgeLabel;html=1;align=center;verticalAlign=middle;resizable=0;points=[];" vertex="1" connectable="0" parent="9MLLla6oI4jPxRE4S_ba-1">
          <mxGeometry x="-0.2054" y="-1" relative="1" as="geometry">
            <mxPoint as="offset" />
          </mxGeometry>
        </mxCell>
        <mxCell id="4hGdP1M2JwbJeWWglB2I-42" value="Bbox on Character" style="rounded=0;whiteSpace=wrap;html=1;fillColor=none;strokeColor=#129416;" parent="1" vertex="1">
          <mxGeometry x="-330" y="290" width="120" height="60" as="geometry" />
        </mxCell>
        <mxCell id="4hGdP1M2JwbJeWWglB2I-45" style="edgeStyle=orthogonalEdgeStyle;rounded=0;orthogonalLoop=1;jettySize=auto;html=1;" parent="1" source="4hGdP1M2JwbJeWWglB2I-43" target="4hGdP1M2JwbJeWWglB2I-1" edge="1">
          <mxGeometry relative="1" as="geometry">
            <Array as="points">
              <mxPoint x="-80" y="450" />
            </Array>
          </mxGeometry>
        </mxCell>
        <mxCell id="4hGdP1M2JwbJeWWglB2I-43" value="Text" style="rounded=0;whiteSpace=wrap;html=1;fillColor=none;strokeColor=#129416;" parent="1" vertex="1">
          <mxGeometry x="-330" y="420" width="120" height="60" as="geometry" />
        </mxCell>
        <mxCell id="9MLLla6oI4jPxRE4S_ba-94" style="edgeStyle=orthogonalEdgeStyle;rounded=0;orthogonalLoop=1;jettySize=auto;html=1;" edge="1" parent="1" source="4hGdP1M2JwbJeWWglB2I-46" target="9MLLla6oI4jPxRE4S_ba-93">
          <mxGeometry relative="1" as="geometry" />
        </mxCell>
        <mxCell id="4hGdP1M2JwbJeWWglB2I-46" value="Document" style="rounded=0;whiteSpace=wrap;html=1;strokeColor=#0F17FF;" parent="1" vertex="1">
          <mxGeometry x="930" y="490" width="120" height="60" as="geometry" />
        </mxCell>
        <mxCell id="4hGdP1M2JwbJeWWglB2I-50" style="edgeStyle=orthogonalEdgeStyle;rounded=0;orthogonalLoop=1;jettySize=auto;html=1;" parent="1" source="4hGdP1M2JwbJeWWglB2I-47" target="4hGdP1M2JwbJeWWglB2I-46" edge="1">
          <mxGeometry relative="1" as="geometry" />
        </mxCell>
        <mxCell id="4hGdP1M2JwbJeWWglB2I-47" value="Server Document" style="rounded=0;whiteSpace=wrap;html=1;strokeColor=#129416;" parent="1" vertex="1">
          <mxGeometry x="930" y="600" width="120" height="60" as="geometry" />
        </mxCell>
        <mxCell id="4hGdP1M2JwbJeWWglB2I-55" value="Server" style="rounded=0;whiteSpace=wrap;html=1;fillColor=none;strokeColor=#129416;" parent="1" vertex="1">
          <mxGeometry x="-650" y="110" width="120" height="60" as="geometry" />
        </mxCell>
        <mxCell id="9MLLla6oI4jPxRE4S_ba-114" style="edgeStyle=orthogonalEdgeStyle;rounded=0;orthogonalLoop=1;jettySize=auto;html=1;" edge="1" parent="1" source="4hGdP1M2JwbJeWWglB2I-56" target="9MLLla6oI4jPxRE4S_ba-104">
          <mxGeometry relative="1" as="geometry" />
        </mxCell>
        <mxCell id="4hGdP1M2JwbJeWWglB2I-56" value="Evaluation" style="rounded=0;whiteSpace=wrap;html=1;strokeColor=#129416;" parent="1" vertex="1">
          <mxGeometry x="1500" y="490" width="120" height="60" as="geometry" />
        </mxCell>
        <mxCell id="4hGdP1M2JwbJeWWglB2I-61" style="edgeStyle=orthogonalEdgeStyle;rounded=0;orthogonalLoop=1;jettySize=auto;html=1;strokeColor=#EB2813;" parent="1" source="4hGdP1M2JwbJeWWglB2I-60" target="4hGdP1M2JwbJeWWglB2I-40" edge="1">
          <mxGeometry relative="1" as="geometry" />
        </mxCell>
        <mxCell id="4hGdP1M2JwbJeWWglB2I-60" value="extract dataframe" style="rounded=0;whiteSpace=wrap;html=1;strokeColor=#FF2C14;" parent="1" vertex="1">
          <mxGeometry x="1070" y="90" width="120" height="60" as="geometry" />
        </mxCell>
        <mxCell id="9MLLla6oI4jPxRE4S_ba-4" style="edgeStyle=orthogonalEdgeStyle;rounded=0;orthogonalLoop=1;jettySize=auto;html=1;entryX=0.5;entryY=0;entryDx=0;entryDy=0;" edge="1" parent="1" source="9MLLla6oI4jPxRE4S_ba-3" target="4hGdP1M2JwbJeWWglB2I-1">
          <mxGeometry relative="1" as="geometry">
            <Array as="points">
              <mxPoint x="-590" y="240" />
              <mxPoint x="-80" y="240" />
            </Array>
          </mxGeometry>
        </mxCell>
        <mxCell id="9MLLla6oI4jPxRE4S_ba-5" value="optional" style="edgeLabel;html=1;align=center;verticalAlign=middle;resizable=0;points=[];" vertex="1" connectable="0" parent="9MLLla6oI4jPxRE4S_ba-4">
          <mxGeometry x="-0.2629" y="-1" relative="1" as="geometry">
            <mxPoint as="offset" />
          </mxGeometry>
        </mxCell>
        <mxCell id="9MLLla6oI4jPxRE4S_ba-40" value="" style="edgeStyle=orthogonalEdgeStyle;rounded=0;orthogonalLoop=1;jettySize=auto;html=1;" edge="1" parent="1" source="9MLLla6oI4jPxRE4S_ba-3" target="9MLLla6oI4jPxRE4S_ba-39">
          <mxGeometry relative="1" as="geometry" />
        </mxCell>
        <mxCell id="9MLLla6oI4jPxRE4S_ba-3" value="Images" style="rounded=0;whiteSpace=wrap;html=1;fillColor=none;strokeColor=#129416;" vertex="1" parent="1">
          <mxGeometry x="-650" y="290" width="120" height="60" as="geometry" />
        </mxCell>
        <mxCell id="9MLLla6oI4jPxRE4S_ba-13" value="" style="edgeStyle=orthogonalEdgeStyle;rounded=0;orthogonalLoop=1;jettySize=auto;html=1;" edge="1" parent="1" source="9MLLla6oI4jPxRE4S_ba-10" target="9MLLla6oI4jPxRE4S_ba-12">
          <mxGeometry relative="1" as="geometry" />
        </mxCell>
        <mxCell id="9MLLla6oI4jPxRE4S_ba-10" value="&lt;b&gt;Document&lt;/b&gt; with labeled Annotations" style="rounded=0;whiteSpace=wrap;html=1;strokeColor=#0F17FF;" vertex="1" parent="1">
          <mxGeometry x="620" y="290" width="120" height="60" as="geometry" />
        </mxCell>
        <mxCell id="9MLLla6oI4jPxRE4S_ba-14" style="edgeStyle=orthogonalEdgeStyle;rounded=0;orthogonalLoop=1;jettySize=auto;html=1;" edge="1" parent="1" source="9MLLla6oI4jPxRE4S_ba-12" target="4hGdP1M2JwbJeWWglB2I-25">
          <mxGeometry relative="1" as="geometry" />
        </mxCell>
        <mxCell id="9MLLla6oI4jPxRE4S_ba-12" value="Label Set Classifier" style="rounded=0;whiteSpace=wrap;html=1;strokeColor=#44B78B;strokeWidth=3;" vertex="1" parent="1">
          <mxGeometry x="760" y="290" width="120" height="60" as="geometry" />
        </mxCell>
        <mxCell id="9MLLla6oI4jPxRE4S_ba-45" style="edgeStyle=orthogonalEdgeStyle;rounded=0;orthogonalLoop=1;jettySize=auto;html=1;" edge="1" parent="1" source="9MLLla6oI4jPxRE4S_ba-90" target="4hGdP1M2JwbJeWWglB2I-40">
          <mxGeometry relative="1" as="geometry">
            <mxPoint x="1460" y="320" as="sourcePoint" />
          </mxGeometry>
        </mxCell>
        <mxCell id="9MLLla6oI4jPxRE4S_ba-41" style="edgeStyle=orthogonalEdgeStyle;rounded=0;orthogonalLoop=1;jettySize=auto;html=1;" edge="1" parent="1" source="9MLLla6oI4jPxRE4S_ba-39" target="4hGdP1M2JwbJeWWglB2I-42">
          <mxGeometry relative="1" as="geometry" />
        </mxCell>
        <mxCell id="9MLLla6oI4jPxRE4S_ba-39" value="OCR" style="rounded=0;whiteSpace=wrap;html=1;fillColor=none;strokeColor=#129416;" vertex="1" parent="1">
          <mxGeometry x="-480" y="290" width="120" height="60" as="geometry" />
        </mxCell>
        <mxCell id="9MLLla6oI4jPxRE4S_ba-43" style="edgeStyle=orthogonalEdgeStyle;rounded=0;orthogonalLoop=1;jettySize=auto;html=1;" edge="1" parent="1" source="9MLLla6oI4jPxRE4S_ba-42" target="9MLLla6oI4jPxRE4S_ba-3">
          <mxGeometry relative="1" as="geometry" />
        </mxCell>
        <mxCell id="9MLLla6oI4jPxRE4S_ba-92" value="POST" style="edgeLabel;html=1;align=center;verticalAlign=middle;resizable=0;points=[];" vertex="1" connectable="0" parent="9MLLla6oI4jPxRE4S_ba-43">
          <mxGeometry x="0.236" y="-2" relative="1" as="geometry">
            <mxPoint x="-13" y="-2" as="offset" />
          </mxGeometry>
        </mxCell>
        <mxCell id="9MLLla6oI4jPxRE4S_ba-42" value="File" style="rounded=0;whiteSpace=wrap;html=1;fillColor=none;strokeColor=#3D0A05;" vertex="1" parent="1">
          <mxGeometry x="-840" y="290" width="120" height="60" as="geometry" />
        </mxCell>
        <mxCell id="9MLLla6oI4jPxRE4S_ba-53" value="Tokenizers" style="swimlane;fontStyle=0;childLayout=stackLayout;horizontal=1;startSize=30;horizontalStack=0;resizeParent=1;resizeParentMax=0;resizeLast=0;collapsible=1;marginBottom=0;strokeColor=#44B78B;strokeWidth=3;" vertex="1" parent="1">
          <mxGeometry x="20" y="260" width="160" height="120" as="geometry">
            <mxRectangle x="320" y="370" width="150" height="30" as="alternateBounds" />
          </mxGeometry>
        </mxCell>
        <mxCell id="9MLLla6oI4jPxRE4S_ba-54" value="SentenceTokenizer #9376" style="text;strokeColor=none;fillColor=none;align=left;verticalAlign=middle;spacingLeft=4;spacingRight=4;overflow=hidden;points=[[0,0.5],[1,0.5]];portConstraint=eastwest;rotatable=0;" vertex="1" parent="9MLLla6oI4jPxRE4S_ba-53">
          <mxGeometry y="30" width="160" height="30" as="geometry" />
        </mxCell>
        <mxCell id="9MLLla6oI4jPxRE4S_ba-55" value="ParagraphTokenizer #9331" style="text;strokeColor=none;fillColor=none;align=left;verticalAlign=middle;spacingLeft=4;spacingRight=4;overflow=hidden;points=[[0,0.5],[1,0.5]];portConstraint=eastwest;rotatable=0;" vertex="1" parent="9MLLla6oI4jPxRE4S_ba-53">
          <mxGeometry y="60" width="160" height="30" as="geometry" />
        </mxCell>
        <mxCell id="9MLLla6oI4jPxRE4S_ba-56" value="RegexTokenizer" style="text;strokeColor=none;fillColor=none;align=left;verticalAlign=middle;spacingLeft=4;spacingRight=4;overflow=hidden;points=[[0,0.5],[1,0.5]];portConstraint=eastwest;rotatable=0;" vertex="1" parent="9MLLla6oI4jPxRE4S_ba-53">
          <mxGeometry y="90" width="160" height="30" as="geometry" />
        </mxCell>
        <mxCell id="9MLLla6oI4jPxRE4S_ba-57" style="edgeStyle=orthogonalEdgeStyle;rounded=0;orthogonalLoop=1;jettySize=auto;html=1;" edge="1" parent="1" source="9MLLla6oI4jPxRE4S_ba-56" target="4hGdP1M2JwbJeWWglB2I-4">
          <mxGeometry relative="1" as="geometry" />
        </mxCell>
        <mxCell id="9MLLla6oI4jPxRE4S_ba-64" style="edgeStyle=orthogonalEdgeStyle;rounded=0;orthogonalLoop=1;jettySize=auto;html=1;entryX=0.5;entryY=0;entryDx=0;entryDy=0;" edge="1" parent="1" source="9MLLla6oI4jPxRE4S_ba-58" target="9MLLla6oI4jPxRE4S_ba-66">
          <mxGeometry relative="1" as="geometry" />
        </mxCell>
        <mxCell id="9MLLla6oI4jPxRE4S_ba-58" value="&lt;b&gt;Document&lt;/b&gt;&amp;nbsp;with no Label Annotations with multiple Spans" style="rounded=0;whiteSpace=wrap;html=1;strokeColor=#0F17FF;" vertex="1" parent="1">
          <mxGeometry x="260" y="250" width="120" height="60" as="geometry" />
        </mxCell>
        <mxCell id="9MLLla6oI4jPxRE4S_ba-59" style="edgeStyle=orthogonalEdgeStyle;rounded=0;orthogonalLoop=1;jettySize=auto;html=1;entryX=0;entryY=0.5;entryDx=0;entryDy=0;" edge="1" parent="1" source="9MLLla6oI4jPxRE4S_ba-55" target="9MLLla6oI4jPxRE4S_ba-58">
          <mxGeometry relative="1" as="geometry" />
        </mxCell>
        <mxCell id="9MLLla6oI4jPxRE4S_ba-61" style="edgeStyle=orthogonalEdgeStyle;rounded=0;orthogonalLoop=1;jettySize=auto;html=1;" edge="1" parent="1" source="9MLLla6oI4jPxRE4S_ba-54" target="9MLLla6oI4jPxRE4S_ba-58">
          <mxGeometry relative="1" as="geometry" />
        </mxCell>
        <mxCell id="9MLLla6oI4jPxRE4S_ba-71" style="edgeStyle=orthogonalEdgeStyle;rounded=0;orthogonalLoop=1;jettySize=auto;html=1;" edge="1" parent="1" source="9MLLla6oI4jPxRE4S_ba-66" target="9MLLla6oI4jPxRE4S_ba-10">
          <mxGeometry relative="1" as="geometry" />
        </mxCell>
        <mxCell id="9MLLla6oI4jPxRE4S_ba-66" value="Label Classifier" style="swimlane;fontStyle=0;childLayout=stackLayout;horizontal=1;startSize=30;horizontalStack=0;resizeParent=1;resizeParentMax=0;resizeLast=0;collapsible=1;marginBottom=0;strokeColor=#44B78B;strokeWidth=3;" vertex="1" parent="1">
          <mxGeometry x="430" y="260" width="160" height="120" as="geometry">
            <mxRectangle x="320" y="370" width="150" height="30" as="alternateBounds" />
          </mxGeometry>
        </mxCell>
        <mxCell id="9MLLla6oI4jPxRE4S_ba-67" value="RandomForest" style="text;strokeColor=none;fillColor=none;align=left;verticalAlign=middle;spacingLeft=4;spacingRight=4;overflow=hidden;points=[[0,0.5],[1,0.5]];portConstraint=eastwest;rotatable=0;" vertex="1" parent="9MLLla6oI4jPxRE4S_ba-66">
          <mxGeometry y="30" width="160" height="30" as="geometry" />
        </mxCell>
        <mxCell id="9MLLla6oI4jPxRE4S_ba-68" value="LayoutLMv3 #9290" style="text;strokeColor=none;fillColor=none;align=left;verticalAlign=middle;spacingLeft=4;spacingRight=4;overflow=hidden;points=[[0,0.5],[1,0.5]];portConstraint=eastwest;rotatable=0;" vertex="1" parent="9MLLla6oI4jPxRE4S_ba-66">
          <mxGeometry y="60" width="160" height="30" as="geometry" />
        </mxCell>
        <mxCell id="9MLLla6oI4jPxRE4S_ba-69" value="RegexTokenizer" style="text;strokeColor=none;fillColor=none;align=left;verticalAlign=middle;spacingLeft=4;spacingRight=4;overflow=hidden;points=[[0,0.5],[1,0.5]];portConstraint=eastwest;rotatable=0;" vertex="1" parent="9MLLla6oI4jPxRE4S_ba-66">
          <mxGeometry y="90" width="160" height="30" as="geometry" />
        </mxCell>
        <mxCell id="9MLLla6oI4jPxRE4S_ba-88" style="edgeStyle=orthogonalEdgeStyle;rounded=0;orthogonalLoop=1;jettySize=auto;html=1;entryX=0;entryY=0.5;entryDx=0;entryDy=0;" edge="1" parent="1" source="9MLLla6oI4jPxRE4S_ba-72" target="9MLLla6oI4jPxRE4S_ba-77">
          <mxGeometry relative="1" as="geometry" />
        </mxCell>
        <mxCell id="9MLLla6oI4jPxRE4S_ba-72" value="Postprocessing" style="swimlane;fontStyle=0;childLayout=stackLayout;horizontal=1;startSize=30;horizontalStack=0;resizeParent=1;resizeParentMax=0;resizeLast=0;collapsible=1;marginBottom=0;strokeColor=#44B78B;strokeWidth=3;" vertex="1" parent="1">
          <mxGeometry x="1050" y="260" width="160" height="120" as="geometry">
            <mxRectangle x="320" y="370" width="150" height="30" as="alternateBounds" />
          </mxGeometry>
        </mxCell>
        <mxCell id="9MLLla6oI4jPxRE4S_ba-73" value="merge horizontal" style="text;strokeColor=none;fillColor=none;align=left;verticalAlign=middle;spacingLeft=4;spacingRight=4;overflow=hidden;points=[[0,0.5],[1,0.5]];portConstraint=eastwest;rotatable=0;" vertex="1" parent="9MLLla6oI4jPxRE4S_ba-72">
          <mxGeometry y="30" width="160" height="30" as="geometry" />
        </mxCell>
        <mxCell id="9MLLla6oI4jPxRE4S_ba-74" value="delete low confidence" style="text;strokeColor=none;fillColor=none;align=left;verticalAlign=middle;spacingLeft=4;spacingRight=4;overflow=hidden;points=[[0,0.5],[1,0.5]];portConstraint=eastwest;rotatable=0;" vertex="1" parent="9MLLla6oI4jPxRE4S_ba-72">
          <mxGeometry y="60" width="160" height="30" as="geometry" />
        </mxCell>
        <mxCell id="9MLLla6oI4jPxRE4S_ba-85" value="merge vertical" style="text;strokeColor=none;fillColor=none;align=left;verticalAlign=middle;spacingLeft=4;spacingRight=4;overflow=hidden;points=[[0,0.5],[1,0.5]];portConstraint=eastwest;rotatable=0;" vertex="1" parent="9MLLla6oI4jPxRE4S_ba-72">
          <mxGeometry y="90" width="160" height="30" as="geometry" />
        </mxCell>
        <mxCell id="9MLLla6oI4jPxRE4S_ba-89" style="edgeStyle=orthogonalEdgeStyle;rounded=0;orthogonalLoop=1;jettySize=auto;html=1;entryX=0.5;entryY=0;entryDx=0;entryDy=0;" edge="1" parent="1" source="9MLLla6oI4jPxRE4S_ba-77" target="9MLLla6oI4jPxRE4S_ba-78">
          <mxGeometry relative="1" as="geometry" />
        </mxCell>
        <mxCell id="9MLLla6oI4jPxRE4S_ba-95" style="edgeStyle=orthogonalEdgeStyle;rounded=0;orthogonalLoop=1;jettySize=auto;html=1;" edge="1" parent="1" source="9MLLla6oI4jPxRE4S_ba-77" target="9MLLla6oI4jPxRE4S_ba-93">
          <mxGeometry relative="1" as="geometry" />
        </mxCell>
        <mxCell id="9MLLla6oI4jPxRE4S_ba-77" value="&lt;b&gt;Document&lt;/b&gt;" style="rounded=0;whiteSpace=wrap;html=1;strokeColor=#1222FF;" vertex="1" parent="1">
          <mxGeometry x="1170" y="395" width="120" height="60" as="geometry" />
        </mxCell>
        <mxCell id="9MLLla6oI4jPxRE4S_ba-91" style="edgeStyle=orthogonalEdgeStyle;rounded=0;orthogonalLoop=1;jettySize=auto;html=1;" edge="1" parent="1" source="9MLLla6oI4jPxRE4S_ba-78" target="9MLLla6oI4jPxRE4S_ba-90">
          <mxGeometry relative="1" as="geometry" />
        </mxCell>
        <mxCell id="9MLLla6oI4jPxRE4S_ba-78" value="Plausibility" style="swimlane;fontStyle=0;childLayout=stackLayout;horizontal=1;startSize=30;horizontalStack=0;resizeParent=1;resizeParentMax=0;resizeLast=0;collapsible=1;marginBottom=0;strokeColor=#44B78B;strokeWidth=3;" vertex="1" parent="1">
          <mxGeometry x="1290" y="260" width="160" height="90" as="geometry">
            <mxRectangle x="320" y="370" width="150" height="30" as="alternateBounds" />
          </mxGeometry>
        </mxCell>
        <mxCell id="9MLLla6oI4jPxRE4S_ba-79" value="Spans.bbox()" style="text;strokeColor=none;fillColor=none;align=left;verticalAlign=middle;spacingLeft=4;spacingRight=4;overflow=hidden;points=[[0,0.5],[1,0.5]];portConstraint=eastwest;rotatable=0;" vertex="1" parent="9MLLla6oI4jPxRE4S_ba-78">
          <mxGeometry y="30" width="160" height="30" as="geometry" />
        </mxCell>
        <mxCell id="9MLLla6oI4jPxRE4S_ba-80" value="convert to BIO Schema" style="text;strokeColor=none;fillColor=none;align=left;verticalAlign=middle;spacingLeft=4;spacingRight=4;overflow=hidden;points=[[0,0.5],[1,0.5]];portConstraint=eastwest;rotatable=0;" vertex="1" parent="9MLLla6oI4jPxRE4S_ba-78">
          <mxGeometry y="60" width="160" height="30" as="geometry" />
        </mxCell>
        <mxCell id="9MLLla6oI4jPxRE4S_ba-90" value="Server valid&lt;br&gt;&lt;b&gt;Document&lt;/b&gt;" style="rounded=0;whiteSpace=wrap;html=1;strokeColor=#1222FF;" vertex="1" parent="1">
          <mxGeometry x="1310" y="395" width="120" height="60" as="geometry" />
        </mxCell>
        <mxCell id="9MLLla6oI4jPxRE4S_ba-97" style="edgeStyle=orthogonalEdgeStyle;rounded=0;orthogonalLoop=1;jettySize=auto;html=1;" edge="1" parent="1" source="9MLLla6oI4jPxRE4S_ba-93" target="9MLLla6oI4jPxRE4S_ba-96">
          <mxGeometry relative="1" as="geometry" />
        </mxCell>
        <mxCell id="9MLLla6oI4jPxRE4S_ba-93" value="compare" style="rhombus;whiteSpace=wrap;html=1;strokeColor=#3D0A05;strokeWidth=3;" vertex="1" parent="1">
          <mxGeometry x="1190" y="480" width="80" height="80" as="geometry" />
        </mxCell>
        <mxCell id="9MLLla6oI4jPxRE4S_ba-98" style="edgeStyle=orthogonalEdgeStyle;rounded=0;orthogonalLoop=1;jettySize=auto;html=1;" edge="1" parent="1" source="9MLLla6oI4jPxRE4S_ba-96" target="4hGdP1M2JwbJeWWglB2I-56">
          <mxGeometry relative="1" as="geometry" />
        </mxCell>
        <mxCell id="9MLLla6oI4jPxRE4S_ba-96" value="Evaluation" style="rounded=0;whiteSpace=wrap;html=1;strokeColor=#0F17FF;" vertex="1" parent="1">
          <mxGeometry x="1310" y="490" width="120" height="60" as="geometry" />
        </mxCell>
        <mxCell id="9MLLla6oI4jPxRE4S_ba-104" value="CSV" style="rounded=0;whiteSpace=wrap;html=1;strokeColor=#3D0A05;" vertex="1" parent="1">
          <mxGeometry x="1680" y="455" width="120" height="60" as="geometry" />
        </mxCell>
        <mxCell id="9MLLla6oI4jPxRE4S_ba-106" value="JSON" style="rounded=0;whiteSpace=wrap;html=1;strokeColor=#3D0A05;" vertex="1" parent="1">
          <mxGeometry x="1750" y="380" width="120" height="60" as="geometry" />
        </mxCell>
      </root>
    </mxGraphModel>
  </diagram>
</mxfile>
